<svg width="3419" height="2917" viewBox="0 0 3419 2917" fill="none" xmlns="http://www.w3.org/2000/svg">
<path d="M158.735 2916.14C113.128 2916.14 76.0718 2906.68 47.5672 2887.75C21.913 2866.12 6.23538 2839.08 0.534457 2806.63C-2.316 2771.48 6.23545 2732.28 26.1887 2689.02L1202.01 150.066C1227.66 95.9879 1257.59 58.1335 1291.8 36.5025C1328.85 12.1675 1368.76 0 1411.52 0C1454.27 0 1492.75 12.1675 1526.96 36.5025C1564.02 58.1335 1593.95 95.9879 1616.75 150.066L2796.84 2689.02C2819.65 2732.28 2828.2 2771.48 2822.5 2806.63C2819.65 2841.78 2805.39 2868.82 2779.74 2887.75C2754.09 2906.68 2718.46 2916.14 2672.85 2916.14C2621.54 2916.14 2580.21 2903.97 2548.85 2879.64C2517.5 2852.6 2491.84 2814.75 2471.89 2766.08L2155.49 2072.53L2050.12 1816.61H783.276L663.268 2072.53L351.142 2766.08C325.488 2817.45 298.408 2855.3 269.904 2879.64C241.399 2903.97 204.343 2916.14 158.735 2916.14ZM1407.24 417.75L783.276 1816.61L895.971 1559.41H1949.77L2050.12 1816.61L1415.79 417.75H1407.24Z" fill="#7099C2"/>
<path d="M1814.64 1688.46C1814.64 1618.69 1871.21 1562.13 1940.98 1562.13H3291.74C3361.52 1562.13 3418.08 1618.69 3418.08 1688.46C3418.08 1758.23 3361.52 1814.8 3291.74 1814.8H1940.98C1871.21 1814.8 1814.64 1758.23 1814.64 1688.46Z" fill="#7099C2"/>
<path d="M2204.91 736.388C2204.91 662.361 2264.92 602.35 2338.94 602.35C2412.97 602.35 2472.98 662.361 2472.98 736.388V1440.09C2472.98 1514.12 2412.97 1574.13 2338.94 1574.13C2264.92 1574.13 2204.91 1514.12 2204.91 1440.09V736.388Z" fill="#7099C2"/>
<path d="M2403.19 850.879C2403.19 815.408 2431.94 786.652 2467.41 786.652H2794.13C2829.61 786.652 2858.36 815.408 2858.36 850.879C2858.36 886.351 2829.61 915.106 2794.13 915.106H2467.41C2431.94 915.106 2403.19 886.351 2403.19 850.879Z" fill="#7099C2"/>
<path d="M2623.76 963.315C2623.76 954.832 2630.64 947.956 2639.12 947.956H3004.93C3013.42 947.956 3020.29 954.832 3020.29 963.315C3020.29 971.797 3013.42 978.673 3004.93 978.673H2639.12C2630.64 978.673 2623.76 971.797 2623.76 963.315Z" fill="#7099C2"/>
<path d="M3004.89 975.982C2996.42 975.39 2990.04 968.051 2990.64 959.589L3014.84 613.507C3015.43 605.045 3022.77 598.665 3031.23 599.257C3039.69 599.849 3046.07 607.188 3045.48 615.649L3021.28 961.732C3020.69 970.194 3013.35 976.573 3004.89 975.982Z" fill="#7099C2"/>
<path d="M2288.4 1523.91C2251.34 1478.15 2258.4 1411.01 2304.16 1373.95L2739.32 1021.56C2785.09 984.505 2852.23 991.562 2889.29 1037.33C2926.34 1083.09 2919.29 1150.23 2873.52 1187.29L2438.36 1539.67C2392.6 1576.73 2325.46 1569.68 2288.4 1523.91Z" fill="#7099C2"/>
<path d="M3201.42 1554.58C3163.38 1585.95 3107.11 1580.53 3075.75 1542.48L2745.38 1141.72C2714.02 1103.67 2719.44 1047.41 2757.48 1016.05C2795.53 984.684 2851.8 990.101 2883.16 1028.15L3213.52 1428.91C3244.89 1466.96 3239.47 1523.22 3201.42 1554.58Z" fill="#7099C2"/>
<path d="M2116.94 380.349C2116.94 257.741 2216.34 158.348 2338.94 158.348C2461.55 158.348 2560.94 257.741 2560.94 380.349C2560.94 502.957 2461.55 602.351 2338.94 602.351C2216.34 602.351 2116.94 502.957 2116.94 380.349Z" fill="#7099C2"/>
</svg>
